<svg width="137" height="45" viewBox="0 0 137 45" fill="none" xmlns="http://www.w3.org/2000/svg">
<rect width="137" height="45" rx="11" fill="white"/>
<path d="M21.642 28H19.392L23.4886 16.3636H26.0909L30.1932 28H27.9432L24.8352 18.75H24.7443L21.642 28ZM21.7159 23.4375H27.8523V25.1307H21.7159V23.4375ZM33.8338 16.3636V28H31.7259V16.3636H33.8338ZM47.8807 20.0795C47.786 19.7727 47.6553 19.4981 47.4886 19.2557C47.3258 19.0095 47.1288 18.7992 46.8977 18.625C46.6705 18.4508 46.4091 18.3201 46.1136 18.233C45.8182 18.142 45.4962 18.0966 45.1477 18.0966C44.5227 18.0966 43.9659 18.2538 43.4773 18.5682C42.9886 18.8826 42.6042 19.3447 42.3239 19.9545C42.0473 20.5606 41.9091 21.2992 41.9091 22.1705C41.9091 23.0492 42.0473 23.7936 42.3239 24.4034C42.6004 25.0133 42.9848 25.4773 43.4773 25.7955C43.9697 26.1098 44.5417 26.267 45.1932 26.267C45.7841 26.267 46.2955 26.1534 46.7273 25.9261C47.1629 25.6989 47.4981 25.3769 47.733 24.9602C47.9678 24.5398 48.0852 24.0473 48.0852 23.483L48.5625 23.5568H45.4034V21.9091H50.125V23.3068C50.125 24.303 49.9129 25.1648 49.4886 25.892C49.0644 26.6193 48.4811 27.1799 47.7386 27.5739C46.9962 27.964 46.1439 28.1591 45.1818 28.1591C44.1098 28.1591 43.1686 27.9186 42.358 27.4375C41.5511 26.9527 40.9205 26.2652 40.4659 25.375C40.0152 24.4811 39.7898 23.4205 39.7898 22.1932C39.7898 21.2538 39.9223 20.4148 40.1875 19.6761C40.4564 18.9375 40.8314 18.3106 41.3125 17.7955C41.7936 17.2765 42.358 16.8826 43.0057 16.6136C43.6534 16.3409 44.358 16.2045 45.1193 16.2045C45.7633 16.2045 46.3636 16.2992 46.9205 16.4886C47.4773 16.6742 47.9716 16.9394 48.4034 17.2841C48.839 17.6288 49.197 18.0379 49.4773 18.5114C49.7576 18.9848 49.9413 19.5076 50.0284 20.0795H47.8807ZM55.9361 28.1705C55.0611 28.1705 54.3054 27.9886 53.669 27.625C53.0365 27.2576 52.5497 26.7386 52.2088 26.0682C51.8679 25.3939 51.6974 24.6004 51.6974 23.6875C51.6974 22.7898 51.8679 22.0019 52.2088 21.3239C52.5535 20.642 53.0346 20.1117 53.652 19.733C54.2694 19.3504 54.9948 19.1591 55.8281 19.1591C56.366 19.1591 56.8736 19.2462 57.3509 19.4205C57.8319 19.5909 58.2562 19.8561 58.6236 20.2159C58.9948 20.5758 59.2865 21.0341 59.4986 21.5909C59.7107 22.1439 59.8168 22.803 59.8168 23.5682V24.1989H52.6634V22.8125H57.8452C57.8414 22.4186 57.7562 22.0682 57.5895 21.7614C57.4228 21.4508 57.1899 21.2064 56.8906 21.0284C56.5952 20.8504 56.2505 20.7614 55.8565 20.7614C55.4361 20.7614 55.0668 20.8636 54.7486 21.0682C54.4304 21.2689 54.1823 21.5341 54.0043 21.8636C53.83 22.1894 53.741 22.5473 53.7372 22.9375V24.1477C53.7372 24.6553 53.83 25.0909 54.0156 25.4545C54.2012 25.8144 54.4607 26.0909 54.794 26.2841C55.1274 26.4735 55.5175 26.5682 55.9645 26.5682C56.2637 26.5682 56.5346 26.5265 56.777 26.4432C57.0194 26.3561 57.2296 26.2292 57.4077 26.0625C57.5857 25.8958 57.7202 25.6894 57.8111 25.4432L59.7315 25.6591C59.6103 26.1667 59.3793 26.6098 59.0384 26.9886C58.7012 27.3636 58.2694 27.6553 57.7429 27.8636C57.2164 28.0682 56.6141 28.1705 55.9361 28.1705ZM63.6136 22.8864V28H61.5568V19.2727H63.5227V20.7557H63.625C63.8258 20.267 64.1458 19.8788 64.5852 19.5909C65.0284 19.303 65.5758 19.1591 66.2273 19.1591C66.8295 19.1591 67.3542 19.2879 67.8011 19.5455C68.2519 19.803 68.6004 20.1761 68.8466 20.6648C69.0966 21.1534 69.2197 21.7462 69.2159 22.4432V28H67.1591V22.7614C67.1591 22.178 67.0076 21.7216 66.7045 21.392C66.4053 21.0625 65.9905 20.8977 65.4602 20.8977C65.1004 20.8977 64.7803 20.9773 64.5 21.1364C64.2235 21.2917 64.0057 21.517 63.8466 21.8125C63.6913 22.108 63.6136 22.4659 63.6136 22.8864ZM75.1705 28.1705C74.2955 28.1705 73.5398 27.9886 72.9034 27.625C72.2708 27.2576 71.7841 26.7386 71.4432 26.0682C71.1023 25.3939 70.9318 24.6004 70.9318 23.6875C70.9318 22.7898 71.1023 22.0019 71.4432 21.3239C71.7879 20.642 72.2689 20.1117 72.8864 19.733C73.5038 19.3504 74.2292 19.1591 75.0625 19.1591C75.6004 19.1591 76.108 19.2462 76.5852 19.4205C77.0663 19.5909 77.4905 19.8561 77.858 20.2159C78.2292 20.5758 78.5208 21.0341 78.733 21.5909C78.9451 22.1439 79.0511 22.803 79.0511 23.5682V24.1989H71.8977V22.8125H77.0795C77.0758 22.4186 76.9905 22.0682 76.8239 21.7614C76.6572 21.4508 76.4242 21.2064 76.125 21.0284C75.8295 20.8504 75.4848 20.7614 75.0909 20.7614C74.6705 20.7614 74.3011 20.8636 73.983 21.0682C73.6648 21.2689 73.4167 21.5341 73.2386 21.8636C73.0644 22.1894 72.9754 22.5473 72.9716 22.9375V24.1477C72.9716 24.6553 73.0644 25.0909 73.25 25.4545C73.4356 25.8144 73.6951 26.0909 74.0284 26.2841C74.3617 26.4735 74.7519 26.5682 75.1989 26.5682C75.4981 26.5682 75.7689 26.5265 76.0114 26.4432C76.2538 26.3561 76.464 26.2292 76.642 26.0625C76.8201 25.8958 76.9545 25.6894 77.0455 25.4432L78.9659 25.6591C78.8447 26.1667 78.6136 26.6098 78.2727 26.9886C77.9356 27.3636 77.5038 27.6553 76.9773 27.8636C76.4508 28.0682 75.8485 28.1705 75.1705 28.1705ZM80.7912 28V19.2727H82.7855V20.7273H82.8764C83.0355 20.2235 83.3082 19.8352 83.6946 19.5625C84.0848 19.286 84.5298 19.1477 85.0298 19.1477C85.1435 19.1477 85.2704 19.1534 85.4105 19.1648C85.5545 19.1723 85.6738 19.1856 85.7685 19.2045V21.0966C85.6813 21.0663 85.5431 21.0398 85.3537 21.017C85.1681 20.9905 84.9882 20.9773 84.8139 20.9773C84.4389 20.9773 84.1018 21.0587 83.8026 21.2216C83.5071 21.3807 83.2741 21.6023 83.1037 21.8864C82.9332 22.1705 82.848 22.4981 82.848 22.8693V28H80.7912ZM89.4901 28.1761C88.937 28.1761 88.4389 28.0777 87.9957 27.8807C87.5563 27.6799 87.2079 27.3845 86.9503 26.9943C86.6965 26.6042 86.5696 26.1231 86.5696 25.5511C86.5696 25.0587 86.6605 24.6515 86.8423 24.3295C87.0241 24.0076 87.2723 23.75 87.5866 23.5568C87.901 23.3636 88.2552 23.2178 88.6491 23.1193C89.0469 23.017 89.4579 22.9432 89.8821 22.8977C90.3935 22.8447 90.8082 22.7973 91.1264 22.7557C91.4446 22.7102 91.6757 22.642 91.8196 22.5511C91.9673 22.4564 92.0412 22.3106 92.0412 22.1136V22.0795C92.0412 21.6515 91.9143 21.3201 91.6605 21.0852C91.4067 20.8504 91.0412 20.733 90.5639 20.733C90.0601 20.733 89.6605 20.8428 89.3651 21.0625C89.0734 21.2822 88.8764 21.5417 88.7741 21.8409L86.8537 21.5682C87.0052 21.0379 87.2552 20.5947 87.6037 20.2386C87.9522 19.8788 88.3783 19.6098 88.8821 19.4318C89.3859 19.25 89.9427 19.1591 90.5526 19.1591C90.973 19.1591 91.3916 19.2083 91.8082 19.3068C92.2249 19.4053 92.6056 19.5682 92.9503 19.7955C93.295 20.0189 93.5715 20.3239 93.7798 20.7102C93.992 21.0966 94.098 21.5795 94.098 22.1591V28H92.1207V26.8011H92.0526C91.9276 27.0436 91.7514 27.2708 91.5241 27.483C91.3007 27.6913 91.0185 27.8598 90.6776 27.9886C90.3404 28.1136 89.9446 28.1761 89.4901 28.1761ZM90.0241 26.6648C90.437 26.6648 90.795 26.5833 91.098 26.4205C91.401 26.2538 91.634 26.0341 91.7969 25.7614C91.9635 25.4886 92.0469 25.1913 92.0469 24.8693V23.8409C91.9825 23.8939 91.8726 23.9432 91.7173 23.9886C91.5658 24.0341 91.3954 24.0739 91.206 24.108C91.0166 24.142 90.8291 24.1723 90.6435 24.1989C90.4579 24.2254 90.2969 24.2481 90.1605 24.267C89.8537 24.3087 89.5791 24.3769 89.3366 24.4716C89.0942 24.5663 88.9029 24.6989 88.7628 24.8693C88.6226 25.036 88.5526 25.2519 88.5526 25.517C88.5526 25.8958 88.6908 26.1818 88.9673 26.375C89.2438 26.5682 89.5961 26.6648 90.0241 26.6648ZM100.524 19.2727V20.8636H95.5071V19.2727H100.524ZM96.7457 17.1818H98.8026V25.375C98.8026 25.6515 98.8442 25.8636 98.9276 26.0114C99.0147 26.1553 99.1283 26.2538 99.2685 26.3068C99.4086 26.3598 99.5639 26.3864 99.7344 26.3864C99.8632 26.3864 99.9806 26.3769 100.087 26.358C100.196 26.339 100.28 26.322 100.337 26.3068L100.683 27.9148C100.573 27.9527 100.416 27.9943 100.212 28.0398C100.011 28.0852 99.7647 28.1117 99.473 28.1193C98.9579 28.1345 98.4938 28.0568 98.081 27.8864C97.6681 27.7121 97.3404 27.4432 97.098 27.0795C96.8594 26.7159 96.742 26.2614 96.7457 25.7159V17.1818ZM106.014 28.1705C105.139 28.1705 104.384 27.9886 103.747 27.625C103.115 27.2576 102.628 26.7386 102.287 26.0682C101.946 25.3939 101.776 24.6004 101.776 23.6875C101.776 22.7898 101.946 22.0019 102.287 21.3239C102.632 20.642 103.113 20.1117 103.73 19.733C104.348 19.3504 105.073 19.1591 105.906 19.1591C106.444 19.1591 106.952 19.2462 107.429 19.4205C107.91 19.5909 108.334 19.8561 108.702 20.2159C109.073 20.5758 109.365 21.0341 109.577 21.5909C109.789 22.1439 109.895 22.803 109.895 23.5682V24.1989H102.741V22.8125H107.923C107.92 22.4186 107.834 22.0682 107.668 21.7614C107.501 21.4508 107.268 21.2064 106.969 21.0284C106.673 20.8504 106.329 20.7614 105.935 20.7614C105.514 20.7614 105.145 20.8636 104.827 21.0682C104.509 21.2689 104.26 21.5341 104.082 21.8636C103.908 22.1894 103.819 22.5473 103.815 22.9375V24.1477C103.815 24.6553 103.908 25.0909 104.094 25.4545C104.279 25.8144 104.539 26.0909 104.872 26.2841C105.205 26.4735 105.596 26.5682 106.043 26.5682C106.342 26.5682 106.613 26.5265 106.855 26.4432C107.098 26.3561 107.308 26.2292 107.486 26.0625C107.664 25.8958 107.798 25.6894 107.889 25.4432L109.81 25.6591C109.688 26.1667 109.457 26.6098 109.116 26.9886C108.779 27.3636 108.348 27.6553 107.821 27.8636C107.295 28.0682 106.692 28.1705 106.014 28.1705ZM114.874 28.1534C114.188 28.1534 113.574 27.9773 113.033 27.625C112.491 27.2727 112.063 26.7614 111.749 26.0909C111.434 25.4205 111.277 24.6061 111.277 23.6477C111.277 22.678 111.436 21.8598 111.754 21.1932C112.076 20.5227 112.51 20.017 113.055 19.6761C113.601 19.3314 114.209 19.1591 114.879 19.1591C115.391 19.1591 115.811 19.2462 116.141 19.4205C116.47 19.5909 116.732 19.7973 116.925 20.0398C117.118 20.2784 117.268 20.5038 117.374 20.7159H117.459V16.3636H119.521V28H117.499V26.625H117.374C117.268 26.8371 117.114 27.0625 116.913 27.3011C116.713 27.536 116.447 27.7367 116.118 27.9034C115.788 28.0701 115.374 28.1534 114.874 28.1534ZM115.447 26.4659C115.883 26.4659 116.254 26.3485 116.561 26.1136C116.868 25.875 117.101 25.5436 117.26 25.1193C117.419 24.6951 117.499 24.2008 117.499 23.6364C117.499 23.072 117.419 22.5814 117.26 22.1648C117.105 21.7481 116.874 21.4242 116.567 21.1932C116.264 20.9621 115.891 20.8466 115.447 20.8466C114.989 20.8466 114.607 20.9659 114.3 21.2045C113.993 21.4432 113.762 21.7727 113.607 22.1932C113.451 22.6136 113.374 23.0947 113.374 23.6364C113.374 24.1818 113.451 24.6686 113.607 25.0966C113.766 25.5208 113.999 25.8561 114.305 26.1023C114.616 26.3447 114.997 26.4659 115.447 26.4659Z" fill="black"/>
</svg>
