<svg width="137" height="45" viewBox="0 0 137 45" fill="none" xmlns="http://www.w3.org/2000/svg">
<g clip-path="url(#clip0_893_1162)">
<path d="M126 0H11C4.92487 0 0 4.92487 0 11V34C0 40.0751 4.92487 45 11 45H126C132.075 45 137 40.0751 137 34V11C137 4.92487 132.075 0 126 0Z" fill="white"/>
<path d="M11.1378 16.9091H14.5511L18.1562 25.7045H18.3097L21.9148 16.9091H25.3281V30H22.6435V21.4794H22.5348L19.147 29.9361H17.3189L13.9311 21.4474H13.8224V30H11.1378V16.9091ZM30.3571 30.1854C29.7306 30.1854 29.1724 30.0767 28.6824 29.8594C28.1923 29.6378 27.8045 29.3118 27.519 28.8814C27.2377 28.4467 27.0971 27.9055 27.0971 27.2578C27.0971 26.7124 27.1973 26.2543 27.3975 25.8835C27.5978 25.5128 27.8706 25.2145 28.2157 24.9886C28.5609 24.7628 28.9529 24.5923 29.3919 24.4773C29.835 24.3622 30.2995 24.2812 30.7853 24.2344C31.3564 24.1747 31.8166 24.1193 32.166 24.0682C32.5154 24.0128 32.769 23.9318 32.9267 23.8253C33.0843 23.7187 33.1632 23.5611 33.1632 23.3523V23.3139C33.1632 22.9091 33.0353 22.5959 32.7797 22.3743C32.5282 22.1527 32.1703 22.0419 31.7058 22.0419C31.2157 22.0419 30.8258 22.1506 30.536 22.3679C30.2463 22.581 30.0545 22.8494 29.9608 23.1733L27.4423 22.9688C27.5701 22.3722 27.8216 21.8565 28.1966 21.4219C28.5716 20.983 29.0552 20.6463 29.6475 20.4119C30.2441 20.1733 30.9345 20.054 31.7186 20.054C32.264 20.054 32.786 20.1179 33.2846 20.2457C33.7875 20.3736 34.2328 20.5717 34.6206 20.8402C35.0126 21.1087 35.3216 21.4538 35.5474 21.8757C35.7733 22.2933 35.8862 22.794 35.8862 23.3778V30H33.3038V28.6385H33.2271C33.0694 28.9453 32.8585 29.2159 32.5943 29.4503C32.3301 29.6804 32.0126 29.8615 31.6419 29.9936C31.2711 30.1214 30.8429 30.1854 30.3571 30.1854ZM31.1369 28.3061C31.5375 28.3061 31.8912 28.2273 32.198 28.0696C32.5048 27.9077 32.7456 27.6903 32.9203 27.4176C33.095 27.1449 33.1824 26.8359 33.1824 26.4908V25.4489C33.0971 25.5043 32.9799 25.5554 32.8308 25.6023C32.6859 25.6449 32.5218 25.6854 32.3386 25.7237C32.1554 25.7578 31.9721 25.7898 31.7889 25.8196C31.6056 25.8452 31.4395 25.8686 31.2903 25.8899C30.9707 25.9368 30.6916 26.0114 30.4529 26.1136C30.2143 26.2159 30.0289 26.3544 29.8968 26.5291C29.7647 26.6996 29.6987 26.9126 29.6987 27.1683C29.6987 27.5391 29.8329 27.8224 30.1014 28.0185C30.3741 28.2102 30.7193 28.3061 31.1369 28.3061ZM41.6167 30.1598C40.8709 30.1598 40.1955 29.968 39.5904 29.5845C38.9895 29.1967 38.5123 28.6278 38.1586 27.8778C37.8091 27.1236 37.6344 26.1989 37.6344 25.1037C37.6344 23.9787 37.8155 23.0433 38.1777 22.2976C38.54 21.5476 39.0215 20.9872 39.6223 20.6165C40.2275 20.2415 40.8901 20.054 41.6103 20.054C42.16 20.054 42.6181 20.1477 42.9846 20.3352C43.3553 20.5185 43.6536 20.7486 43.8794 21.0256C44.1096 21.2983 44.2843 21.5668 44.4036 21.831H44.4867V16.9091H47.2033V30H44.5186V28.4276H44.4036C44.2757 28.7003 44.0946 28.9709 43.8603 29.2393C43.6301 29.5036 43.3297 29.723 42.959 29.8977C42.5925 30.0724 42.1451 30.1598 41.6167 30.1598ZM42.4796 27.9929C42.9185 27.9929 43.2892 27.8736 43.5918 27.6349C43.8986 27.392 44.133 27.0533 44.2949 26.6186C44.4611 26.1839 44.5442 25.6747 44.5442 25.0909C44.5442 24.5071 44.4632 24 44.3013 23.5696C44.1394 23.1392 43.905 22.8068 43.5982 22.5724C43.2914 22.3381 42.9185 22.2209 42.4796 22.2209C42.0321 22.2209 41.655 22.3423 41.3482 22.5852C41.0414 22.8281 40.8091 23.1648 40.6515 23.5952C40.4938 24.0256 40.415 24.5241 40.415 25.0909C40.415 25.6619 40.4938 26.1669 40.6515 26.6058C40.8134 27.0405 41.0456 27.3814 41.3482 27.6286C41.655 27.8714 42.0321 27.9929 42.4796 27.9929ZM53.9165 30.1918C52.9066 30.1918 52.0373 29.9872 51.3086 29.5781C50.5842 29.1648 50.0259 28.581 49.6339 27.8267C49.2418 27.0682 49.0458 26.1712 49.0458 25.1357C49.0458 24.1257 49.2418 23.2393 49.6339 22.4766C50.0259 21.7138 50.5778 21.1193 51.2894 20.6932C52.0053 20.267 52.8448 20.054 53.8079 20.054C54.4556 20.054 55.0586 20.1584 55.6168 20.3672C56.1793 20.5717 56.6694 20.8807 57.087 21.294C57.5089 21.7074 57.837 22.2273 58.0714 22.8537C58.3058 23.4759 58.4229 24.2045 58.4229 25.0398V25.7876H50.1325V24.1001H55.8597C55.8597 23.7081 55.7745 23.3608 55.604 23.0582C55.4336 22.7557 55.1971 22.5192 54.8945 22.3487C54.5962 22.174 54.2489 22.0866 53.8526 22.0866C53.4393 22.0866 53.0728 22.1825 52.7532 22.3743C52.4379 22.5618 52.1907 22.8153 52.0117 23.1349C51.8327 23.4503 51.7411 23.8018 51.7369 24.1896V25.794C51.7369 26.2798 51.8263 26.6996 52.0053 27.0533C52.1886 27.407 52.4464 27.6797 52.7788 27.8714C53.1112 28.0632 53.5053 28.1591 53.9613 28.1591C54.2638 28.1591 54.5408 28.1165 54.7923 28.0312C55.0437 27.946 55.2589 27.8182 55.4379 27.6477C55.6168 27.4773 55.7532 27.2685 55.8469 27.0213L58.3654 27.1875C58.2376 27.7926 57.9755 28.321 57.5792 28.7727C57.1871 29.2202 56.68 29.5696 56.0579 29.821C55.44 30.0682 54.7262 30.1918 53.9165 30.1918ZM66.3027 30L63.6309 20.1818H66.3858L67.9071 26.7784H67.9966L69.5819 20.1818H72.2857L73.8965 26.7401H73.9796L75.4753 20.1818H78.2239L75.5584 30H72.6756L70.9881 23.8253H70.8667L69.1792 30H66.3027ZM79.6765 30V20.1818H82.3995V30H79.6765ZM81.0444 18.9162C80.6396 18.9162 80.2923 18.782 80.0025 18.5135C79.717 18.2408 79.5742 17.9148 79.5742 17.5355C79.5742 17.1605 79.717 16.8388 80.0025 16.5703C80.2923 16.2976 80.6396 16.1612 81.0444 16.1612C81.4492 16.1612 81.7944 16.2976 82.0799 16.5703C82.3697 16.8388 82.5146 17.1605 82.5146 17.5355C82.5146 17.9148 82.3697 18.2408 82.0799 18.5135C81.7944 18.782 81.4492 18.9162 81.0444 18.9162ZM89.8031 20.1818V22.2273H83.8904V20.1818H89.8031ZM85.2328 17.8295H87.9558V26.983C87.9558 27.2344 87.9941 27.4304 88.0708 27.571C88.1475 27.7074 88.2541 27.8033 88.3904 27.8587C88.5311 27.9141 88.693 27.9418 88.8762 27.9418C89.0041 27.9418 89.1319 27.9311 89.2598 27.9098C89.3876 27.8842 89.4856 27.8651 89.5538 27.8523L89.9821 29.8786C89.8457 29.9212 89.6539 29.9702 89.4068 30.0256C89.1596 30.0852 88.8592 30.1214 88.5055 30.1342C87.8493 30.1598 87.274 30.0724 86.7797 29.8722C86.2896 29.6719 85.9082 29.3608 85.6355 28.9389C85.3627 28.517 85.2285 27.9844 85.2328 27.3409V17.8295ZM94.5108 24.3239V30H91.7878V16.9091H94.4341V21.9141H94.5492C94.7708 21.3345 95.1287 20.8807 95.623 20.5526C96.1174 20.2202 96.7374 20.054 97.4831 20.054C98.165 20.054 98.7594 20.2031 99.2665 20.5014C99.7779 20.7955 100.174 21.2195 100.455 21.7734C100.741 22.3232 100.882 22.9815 100.877 23.7486V30H98.1543V24.2344C98.1586 23.6293 98.0051 23.1584 97.6941 22.8217C97.3873 22.4851 96.9569 22.3168 96.4029 22.3168C96.0321 22.3168 95.704 22.3956 95.4185 22.5533C95.1373 22.7109 94.9157 22.9411 94.7537 23.2436C94.5961 23.5419 94.5151 23.902 94.5108 24.3239ZM109.494 30H106.528L111.047 16.9091H114.614L119.127 30H116.161L112.882 19.9006H112.779L109.494 30ZM109.308 24.8544H116.314V27.0149H109.308V24.8544ZM123.47 16.9091V30H120.702V16.9091H123.47Z" fill="black"/>
</g>
<defs>
<clipPath id="clip0_893_1162">
<rect width="137" height="45" fill="white"/>
</clipPath>
</defs>
</svg>
