<svg width="171" height="45" viewBox="0 0 171 45" fill="none" xmlns="http://www.w3.org/2000/svg">
<g clip-path="url(#clip0_895_1166)">
<path d="M157.27 0H13.7299C6.1471 0 0 4.92487 0 11V34C0 40.0751 6.1471 45 13.7299 45H157.27C164.853 45 171 40.0751 171 34V11C171 4.92487 164.853 0 157.27 0Z" fill="white"/>
<path d="M9.13778 16.9091H12.5511L16.1562 25.7045H16.3097L19.9148 16.9091H23.3281V30H20.6435V21.4794H20.5348L17.147 29.9361H15.3189L11.9311 21.4474H11.8224V30H9.13778V16.9091ZM28.3571 30.1854C27.7306 30.1854 27.1724 30.0767 26.6824 29.8594C26.1923 29.6378 25.8045 29.3118 25.519 28.8814C25.2377 28.4467 25.0971 27.9055 25.0971 27.2578C25.0971 26.7124 25.1973 26.2543 25.3975 25.8835C25.5978 25.5128 25.8706 25.2145 26.2157 24.9886C26.5609 24.7628 26.9529 24.5923 27.3919 24.4773C27.835 24.3622 28.2995 24.2812 28.7853 24.2344C29.3564 24.1747 29.8166 24.1193 30.166 24.0682C30.5154 24.0128 30.769 23.9318 30.9267 23.8253C31.0843 23.7187 31.1632 23.5611 31.1632 23.3523V23.3139C31.1632 22.9091 31.0353 22.5959 30.7797 22.3743C30.5282 22.1527 30.1703 22.0419 29.7058 22.0419C29.2157 22.0419 28.8258 22.1506 28.536 22.3679C28.2463 22.581 28.0545 22.8494 27.9608 23.1733L25.4423 22.9688C25.5701 22.3722 25.8216 21.8565 26.1966 21.4219C26.5716 20.983 27.0552 20.6463 27.6475 20.4119C28.2441 20.1733 28.9345 20.054 29.7186 20.054C30.264 20.054 30.786 20.1179 31.2846 20.2457C31.7875 20.3736 32.2328 20.5717 32.6206 20.8402C33.0126 21.1087 33.3216 21.4538 33.5474 21.8757C33.7733 22.2933 33.8862 22.794 33.8862 23.3778V30H31.3038V28.6385H31.2271C31.0694 28.9453 30.8585 29.2159 30.5943 29.4503C30.3301 29.6804 30.0126 29.8615 29.6419 29.9936C29.2711 30.1214 28.8429 30.1854 28.3571 30.1854ZM29.1369 28.3061C29.5375 28.3061 29.8912 28.2273 30.198 28.0696C30.5048 27.9077 30.7456 27.6903 30.9203 27.4176C31.095 27.1449 31.1824 26.8359 31.1824 26.4908V25.4489C31.0971 25.5043 30.9799 25.5554 30.8308 25.6023C30.6859 25.6449 30.5218 25.6854 30.3386 25.7237C30.1554 25.7578 29.9721 25.7898 29.7889 25.8196C29.6056 25.8452 29.4395 25.8686 29.2903 25.8899C28.9707 25.9368 28.6916 26.0114 28.4529 26.1136C28.2143 26.2159 28.0289 26.3544 27.8968 26.5291C27.7647 26.6996 27.6987 26.9126 27.6987 27.1683C27.6987 27.5391 27.8329 27.8224 28.1014 28.0185C28.3741 28.2102 28.7193 28.3061 29.1369 28.3061ZM39.6167 30.1598C38.8709 30.1598 38.1955 29.968 37.5904 29.5845C36.9895 29.1967 36.5123 28.6278 36.1586 27.8778C35.8091 27.1236 35.6344 26.1989 35.6344 25.1037C35.6344 23.9787 35.8155 23.0433 36.1777 22.2976C36.54 21.5476 37.0215 20.9872 37.6223 20.6165C38.2275 20.2415 38.8901 20.054 39.6103 20.054C40.16 20.054 40.6181 20.1477 40.9846 20.3352C41.3553 20.5185 41.6536 20.7486 41.8794 21.0256C42.1096 21.2983 42.2843 21.5668 42.4036 21.831H42.4867V16.9091H45.2033V30H42.5186V28.4276H42.4036C42.2757 28.7003 42.0946 28.9709 41.8603 29.2393C41.6301 29.5036 41.3297 29.723 40.959 29.8977C40.5925 30.0724 40.1451 30.1598 39.6167 30.1598ZM40.4796 27.9929C40.9185 27.9929 41.2892 27.8736 41.5918 27.6349C41.8986 27.392 42.133 27.0533 42.2949 26.6186C42.4611 26.1839 42.5442 25.6747 42.5442 25.0909C42.5442 24.5071 42.4632 24 42.3013 23.5696C42.1394 23.1392 41.905 22.8068 41.5982 22.5724C41.2914 22.3381 40.9185 22.2209 40.4796 22.2209C40.0321 22.2209 39.655 22.3423 39.3482 22.5852C39.0414 22.8281 38.8091 23.1648 38.6515 23.5952C38.4938 24.0256 38.415 24.5241 38.415 25.0909C38.415 25.6619 38.4938 26.1669 38.6515 26.6058C38.8134 27.0405 39.0456 27.3814 39.3482 27.6286C39.655 27.8714 40.0321 27.9929 40.4796 27.9929ZM51.9165 30.1918C50.9066 30.1918 50.0373 29.9872 49.3086 29.5781C48.5842 29.1648 48.0259 28.581 47.6339 27.8267C47.2418 27.0682 47.0458 26.1712 47.0458 25.1357C47.0458 24.1257 47.2418 23.2393 47.6339 22.4766C48.0259 21.7138 48.5778 21.1193 49.2894 20.6932C50.0053 20.267 50.8448 20.054 51.8079 20.054C52.4556 20.054 53.0586 20.1584 53.6168 20.3672C54.1793 20.5717 54.6694 20.8807 55.087 21.294C55.5089 21.7074 55.837 22.2273 56.0714 22.8537C56.3058 23.4759 56.4229 24.2045 56.4229 25.0398V25.7876H48.1325V24.1001H53.8597C53.8597 23.7081 53.7745 23.3608 53.604 23.0582C53.4336 22.7557 53.1971 22.5192 52.8945 22.3487C52.5962 22.174 52.2489 22.0866 51.8526 22.0866C51.4393 22.0866 51.0728 22.1825 50.7532 22.3743C50.4379 22.5618 50.1907 22.8153 50.0117 23.1349C49.8327 23.4503 49.7411 23.8018 49.7369 24.1896V25.794C49.7369 26.2798 49.8263 26.6996 50.0053 27.0533C50.1886 27.407 50.4464 27.6797 50.7788 27.8714C51.1112 28.0632 51.5053 28.1591 51.9613 28.1591C52.2638 28.1591 52.5408 28.1165 52.7923 28.0312C53.0437 27.946 53.2589 27.8182 53.4379 27.6477C53.6168 27.4773 53.7532 27.2685 53.8469 27.0213L56.3654 27.1875C56.2376 27.7926 55.9755 28.321 55.5792 28.7727C55.1871 29.2202 54.68 29.5696 54.0579 29.821C53.44 30.0682 52.7262 30.1918 51.9165 30.1918ZM62.4171 30V16.9091H65.1401V21.831H65.2232C65.3425 21.5668 65.5151 21.2983 65.7409 21.0256C65.9711 20.7486 66.2694 20.5185 66.6358 20.3352C67.0066 20.1477 67.4668 20.054 68.0165 20.054C68.7324 20.054 69.3929 20.2415 69.998 20.6165C70.6032 20.9872 71.0868 21.5476 71.449 22.2976C71.8113 23.0433 71.9924 23.9787 71.9924 25.1037C71.9924 26.1989 71.8155 27.1236 71.4618 27.8778C71.1124 28.6278 70.6351 29.1967 70.03 29.5845C69.4292 29.968 68.7559 30.1598 68.0101 30.1598C67.4817 30.1598 67.0321 30.0724 66.6614 29.8977C66.2949 29.723 65.9945 29.5036 65.7601 29.2393C65.5257 28.9709 65.3468 28.7003 65.2232 28.4276H65.1017V30H62.4171ZM65.0826 25.0909C65.0826 25.6747 65.1635 26.1839 65.3255 26.6186C65.4874 27.0533 65.7218 27.392 66.0286 27.6349C66.3354 27.8736 66.7083 27.9929 67.1472 27.9929C67.5904 27.9929 67.9654 27.8714 68.2722 27.6286C68.579 27.3814 68.8113 27.0405 68.9689 26.6058C69.1309 26.1669 69.2118 25.6619 69.2118 25.0909C69.2118 24.5241 69.133 24.0256 68.9753 23.5952C68.8176 23.1648 68.5854 22.8281 68.2786 22.5852C67.9718 22.3423 67.5946 22.2209 67.1472 22.2209C66.704 22.2209 66.329 22.3381 66.0222 22.5724C65.7196 22.8068 65.4874 23.1392 65.3255 23.5696C65.1635 24 65.0826 24.5071 65.0826 25.0909ZM75.174 33.6818C74.8288 33.6818 74.505 33.6541 74.2024 33.5987C73.9041 33.5476 73.657 33.4815 73.4609 33.4006L74.0746 31.3679C74.3942 31.4659 74.6818 31.5192 74.9375 31.5277C75.1974 31.5362 75.4212 31.4766 75.6087 31.3487C75.8004 31.2209 75.956 31.0036 76.0753 30.6967L76.2351 30.2812L72.7131 20.1818H75.5767L77.6094 27.392H77.7116L79.7635 20.1818H82.6463L78.8303 31.0611C78.647 31.5895 78.3977 32.0497 78.0824 32.4418C77.7713 32.8381 77.3771 33.1428 76.8999 33.3558C76.4226 33.5732 75.8473 33.6818 75.174 33.6818ZM91.0055 30.1854C90.3791 30.1854 89.8208 30.0767 89.3308 29.8594C88.8407 29.6378 88.4529 29.3118 88.1674 28.8814C87.8862 28.4467 87.7456 27.9055 87.7456 27.2578C87.7456 26.7124 87.8457 26.2543 88.046 25.8835C88.2463 25.5128 88.519 25.2145 88.8642 24.9886C89.2093 24.7628 89.6014 24.5923 90.0403 24.4773C90.4835 24.3622 90.948 24.2812 91.4338 24.2344C92.0048 24.1747 92.465 24.1193 92.8145 24.0682C93.1639 24.0128 93.4174 23.9318 93.5751 23.8253C93.7328 23.7187 93.8116 23.5611 93.8116 23.3523V23.3139C93.8116 22.9091 93.6838 22.5959 93.4281 22.3743C93.1767 22.1527 92.8187 22.0419 92.3542 22.0419C91.8642 22.0419 91.4743 22.1506 91.1845 22.3679C90.8947 22.581 90.7029 22.8494 90.6092 23.1733L88.0907 22.9688C88.2186 22.3722 88.47 21.8565 88.845 21.4219C89.22 20.983 89.7037 20.6463 90.296 20.4119C90.8926 20.1733 91.5829 20.054 92.367 20.054C92.9125 20.054 93.4345 20.1179 93.9331 20.2457C94.4359 20.3736 94.8812 20.5717 95.269 20.8402C95.661 21.1087 95.97 21.4538 96.1958 21.8757C96.4217 22.2933 96.5346 22.794 96.5346 23.3778V30H93.9522V28.6385H93.8755C93.7179 28.9453 93.5069 29.2159 93.2427 29.4503C92.9785 29.6804 92.661 29.8615 92.2903 29.9936C91.9196 30.1214 91.4913 30.1854 91.0055 30.1854ZM91.7853 28.3061C92.1859 28.3061 92.5396 28.2273 92.8464 28.0696C93.1532 27.9077 93.394 27.6903 93.5687 27.4176C93.7434 27.1449 93.8308 26.8359 93.8308 26.4908V25.4489C93.7456 25.5043 93.6284 25.5554 93.4792 25.6023C93.3343 25.6449 93.1703 25.6854 92.987 25.7237C92.8038 25.7578 92.6206 25.7898 92.4373 25.8196C92.2541 25.8452 92.0879 25.8686 91.9387 25.8899C91.6191 25.9368 91.34 26.0114 91.1014 26.1136C90.8627 26.2159 90.6774 26.3544 90.5453 26.5291C90.4132 26.6996 90.3471 26.9126 90.3471 27.1683C90.3471 27.5391 90.4814 27.8224 90.7498 28.0185C91.0225 28.2102 91.3677 28.3061 91.7853 28.3061ZM105.536 24.3239V30H102.813V16.9091H105.46V21.9141H105.575C105.796 21.3345 106.154 20.8807 106.648 20.5526C107.143 20.2202 107.763 20.054 108.509 20.054C109.19 20.054 109.785 20.2031 110.292 20.5014C110.803 20.7955 111.2 21.2195 111.481 21.7734C111.766 22.3232 111.907 22.9815 111.903 23.7486V30H109.18V24.2344C109.184 23.6293 109.031 23.1584 108.719 22.8217C108.413 22.4851 107.982 22.3168 107.428 22.3168C107.058 22.3168 106.729 22.3956 106.444 22.5533C106.163 22.7109 105.941 22.9411 105.779 23.2436C105.621 23.5419 105.54 23.902 105.536 24.3239ZM120.342 25.8196V20.1818H123.065V30H120.45V28.2166H120.348C120.127 28.7919 119.758 29.2543 119.242 29.6037C118.731 29.9531 118.107 30.1278 117.369 30.1278C116.713 30.1278 116.136 29.9787 115.637 29.6804C115.139 29.3821 114.749 28.9581 114.468 28.4084C114.191 27.8587 114.05 27.2003 114.046 26.4332V20.1818H116.769V25.9474C116.773 26.527 116.928 26.9851 117.235 27.3217C117.542 27.6584 117.953 27.8267 118.469 27.8267C118.797 27.8267 119.104 27.7521 119.389 27.603C119.675 27.4496 119.905 27.2237 120.08 26.9254C120.259 26.6271 120.346 26.2585 120.342 25.8196ZM125.243 30V20.1818H127.838V21.9141H127.953C128.158 21.3388 128.499 20.8849 128.976 20.5526C129.453 20.2202 130.024 20.054 130.689 20.054C131.362 20.054 131.935 20.2223 132.408 20.5589C132.881 20.8913 133.197 21.343 133.354 21.9141H133.457C133.657 21.3516 134.019 20.902 134.543 20.5653C135.072 20.2244 135.696 20.054 136.416 20.054C137.332 20.054 138.076 20.3459 138.647 20.9297C139.222 21.5092 139.51 22.3317 139.51 23.397V30H136.793V23.9339C136.793 23.3885 136.648 22.9794 136.359 22.7067C136.069 22.4339 135.707 22.2976 135.272 22.2976C134.778 22.2976 134.392 22.4553 134.115 22.7706C133.838 23.0817 133.7 23.4929 133.7 24.0043V30H131.06V23.8764C131.06 23.3949 130.921 23.0114 130.644 22.7259C130.371 22.4403 130.011 22.2976 129.564 22.2976C129.261 22.2976 128.989 22.3743 128.746 22.5277C128.507 22.6768 128.317 22.8878 128.177 23.1605C128.036 23.429 127.966 23.7443 127.966 24.1065V30H125.243ZM144.461 30.1854C143.834 30.1854 143.276 30.0767 142.786 29.8594C142.296 29.6378 141.908 29.3118 141.623 28.8814C141.341 28.4467 141.201 27.9055 141.201 27.2578C141.201 26.7124 141.301 26.2543 141.501 25.8835C141.701 25.5128 141.974 25.2145 142.319 24.9886C142.664 24.7628 143.056 24.5923 143.495 24.4773C143.939 24.3622 144.403 24.2812 144.889 24.2344C145.46 24.1747 145.92 24.1193 146.27 24.0682C146.619 24.0128 146.873 23.9318 147.03 23.8253C147.188 23.7187 147.267 23.5611 147.267 23.3523V23.3139C147.267 22.9091 147.139 22.5959 146.883 22.3743C146.632 22.1527 146.274 22.0419 145.809 22.0419C145.319 22.0419 144.929 22.1506 144.64 22.3679C144.35 22.581 144.158 22.8494 144.064 23.1733L141.546 22.9688C141.674 22.3722 141.925 21.8565 142.3 21.4219C142.675 20.983 143.159 20.6463 143.751 20.4119C144.348 20.1733 145.038 20.054 145.822 20.054C146.368 20.054 146.89 20.1179 147.388 20.2457C147.891 20.3736 148.336 20.5717 148.724 20.8402C149.116 21.1087 149.425 21.4538 149.651 21.8757C149.877 22.2933 149.99 22.794 149.99 23.3778V30H147.407V28.6385H147.331C147.173 28.9453 146.962 29.2159 146.698 29.4503C146.434 29.6804 146.116 29.8615 145.745 29.9936C145.375 30.1214 144.946 30.1854 144.461 30.1854ZM145.24 28.3061C145.641 28.3061 145.995 28.2273 146.301 28.0696C146.608 27.9077 146.849 27.6903 147.024 27.4176C147.199 27.1449 147.286 26.8359 147.286 26.4908V25.4489C147.201 25.5043 147.083 25.5554 146.934 25.6023C146.789 25.6449 146.625 25.6854 146.442 25.7237C146.259 25.7578 146.076 25.7898 145.892 25.8196C145.709 25.8452 145.543 25.8686 145.394 25.8899C145.074 25.9368 144.795 26.0114 144.556 26.1136C144.318 26.2159 144.132 26.3544 144 26.5291C143.868 26.6996 143.802 26.9126 143.802 27.1683C143.802 27.5391 143.936 27.8224 144.205 28.0185C144.478 28.2102 144.823 28.3061 145.24 28.3061ZM154.825 24.3239V30H152.102V20.1818H154.697V21.9141H154.812C155.03 21.343 155.394 20.8913 155.906 20.5589C156.417 20.2223 157.037 20.054 157.766 20.054C158.447 20.054 159.042 20.2031 159.549 20.5014C160.056 20.7997 160.45 21.2259 160.732 21.7798C161.013 22.3295 161.153 22.9858 161.153 23.7486V30H158.43V24.2344C158.435 23.6335 158.281 23.1648 157.97 22.8281C157.659 22.4872 157.231 22.3168 156.685 22.3168C156.319 22.3168 155.995 22.3956 155.714 22.5533C155.437 22.7109 155.219 22.9411 155.062 23.2436C154.908 23.5419 154.83 23.902 154.825 24.3239Z" fill="black"/>
</g>
<defs>
<clipPath id="clip0_895_1166">
<rect width="171" height="45" fill="white"/>
</clipPath>
</defs>
</svg>
